<svg xmlns="http://www.w3.org/2000/svg" width="40" height="82" stroke="#ffffff" fill="none"><g stroke-width="3.647"><path d="M22.095 2.35l15.222 8.022c1.142.602 1.142 1.577 0 2.18l-15.222 8.022c-1.142.602-2.993.602-4.134 0L2.74 12.55c-1.142-.602-1.142-1.577 0-2.18L17.96 2.35c1.142-.602 2.993-.602 4.134 0zm0 20.446l15.222 8.022c1.142.602 1.142 1.577 0 2.18l-15.222 8.012c-1.142.602-2.993.602-4.134 0L2.74 32.986c-1.142-.602-1.142-1.577 0-2.18l15.222-8.012c1.142-.602 2.993-.602 4.134 0z"/><path d="M1.885 52.492V12.874m36.23 39.388V12.646M20.028 40.888V22.445" stroke-linecap="square"/><path d="M37.26 52.47c1.142.602 1.142 1.577 0 2.18l-15.222 8.022c-1.142.602-2.993.602-4.134 0L2.68 54.65c-1.142-.602-1.142-1.577 0-2.18"/></g><path d="M20.028 80.485V68.397m-14.145 8.22V64.52m28.29 12.095V64.52" stroke-width="2.987" stroke-linecap="round"/></svg>